# xmcd CD database file
#
# Track frame offsets:
#	150
#	37379
#	70347
#	116118
#	134196
#	151808
#	180086
#	200564
#	231692
#	240938
#
# Disc length: 3450 seconds
#
# Revision: 0
# Processed by: cddbd v1.5.1PL0 Copyright (c) Steve Scherf et al.
# Submitted via: CDex 1.51
#
DISCID=930d780a
DTITLE=Various Artist - Mix Neu
DYEAR=1900
DGENRE=New Age
TTITLE0=Gigi DÁgosrino - Super (radioedit)
TTITLE1=Gigi DÁgosrino - Super id ratante
TTITLE2=Gigi DÁgosrino - Super (Rilassante)
TTITLE3=Gigi DÁgosrino - Super (Riscal Damento
TTITLE4=Murray Head - One Night in Bangkok
TTITLE5=Brooklyn Bounce - Born to Bounce
TTITLE6=MAlaria vs. chicken on speed - Kaltes klares Wasser
TTITLE7=Fatboy Slim - The Rockafeller Shank
TTITLE8=Blur - Song 2
TTITLE9=H.Blockx - Risin´High
EXTD=
EXTT0=
EXTT1=
EXTT2=
EXTT3=
EXTT4=
EXTT5=
EXTT6=
EXTT7=
EXTT8=
EXTT9=
PLAYORDER=
